<svg xmlns="http://www.w3.org/2000/svg" viewBox="0 0 1200 900" role="img" aria-labelledby="title desc">
  <title id="title">Биология изучает живую природу</title>
  <desc id="desc">Коллаж из растения, животного, гриба, микроорганизмов и микроскопа</desc>
  <defs>
    <linearGradient id="bg" x1="0" y1="0" x2="1" y2="1"><stop stop-color="#dcefd8"/><stop offset="1" stop-color="#f4ead2"/></linearGradient>
    <filter id="s"><feDropShadow dx="0" dy="18" stdDeviation="20" flood-color="#173d28" flood-opacity=".2"/></filter>
  </defs>
  <rect width="1200" height="900" fill="url(#bg)"/>
  <circle cx="600" cy="450" r="295" fill="#fffdf5" stroke="#93b89a" stroke-width="18" filter="url(#s)"/>
  <path d="M535 245h90v185h-90zM510 205h140v65H510zM600 420c110 0 168 79 168 168H440c0-89 58-168 160-168z" fill="#315f43"/>
  <path d="M625 300h120l55 78-64 45-67-67-44 35z" fill="#6f9e78"/>
  <rect x="510" y="565" width="205" height="45" rx="22" fill="#214a34"/>
  <path d="M210 640c-12-170 66-285 211-331-14 153-70 267-211 331z" fill="#5d9f61"/>
  <path d="M230 615c58-82 112-146 174-239" fill="none" stroke="#eef7e8" stroke-width="13" stroke-linecap="round"/>
  <path d="M840 602c-70-92-42-206 75-242 123 49 134 164 42 248-51 46-82 64-117-6z" fill="#c87849"/>
  <path d="M856 606c38-36 78-73 121-107" fill="none" stroke="#fff1d8" stroke-width="10"/>
  <path d="M885 285c0-69 64-118 142-91 62 21 76 106 22 147H886z" fill="#d8614f"/>
  <path d="M949 341v102" stroke="#eee0c0" stroke-width="31" stroke-linecap="round"/>
  <circle cx="921" cy="251" r="11" fill="#fff4dc"/><circle cx="1000" cy="271" r="14" fill="#fff4dc"/>
  <g fill="#4a7f92"><ellipse cx="214" cy="249" rx="51" ry="25" transform="rotate(28 214 249)"/><ellipse cx="301" cy="199" rx="35" ry="19" transform="rotate(-22 301 199)"/><circle cx="340" cy="270" r="24"/></g>
  <g fill="#fff"><circle cx="198" cy="240" r="5"/><circle cx="229" cy="255" r="5"/><circle cx="332" cy="264" r="5"/></g>
</svg>
